<svg xmlns="http://www.w3.org/2000/svg" width="168" height="16">
  <g fill="#23873A" fill-rule="evenodd">
    <path d="M28.214 7.322v-1.44a.366.366 0 0 0-.371-.355H21.31a.364.364 0 0 0-.37.356v1.823c.119-.018.242-.028.37-.028l6.533.004a.368.368 0 0 0 .371-.36zm56.136 0v-1.44a.364.364 0 0 0-.37-.355h-6.536a.364.364 0 0 0-.37.356v1.823c.12-.018.245-.028.37-.028l6.537.004a.367.367 0 0 0 .369-.36zm-69.737-1.8h-6.6a.365.365 0 0 0-.37.354v1.816a2.55 2.55 0 0 1 .37-.029h6.6a.365.365 0 0 0 .37-.355V5.876a.365.365 0 0 0-.37-.355zM102.761 0H1.56C.7 0 0 .674 0 1.507v12.959c0 .834.7 1.507 1.562 1.507H102.76c.865 0 1.561-.673 1.561-1.507V1.507c0-.833-.696-1.507-1.561-1.507zM16.833 7.31c0 1.231-1.034 2.233-2.314 2.233H8.014a.361.361 0 0 0-.37.352v2.438H5.7v-.749h-.002V5.876C5.701 4.644 6.735 3.64 8.014 3.64h6.505c1.28 0 2.313 1 2.315 2.235V7.31zm10.899 5.025l-2.867-2.767-3.557-.002c-.2.002-.36.15-.37.34v2.428h-1.954v-6.45c.002-1.24 1.04-2.243 2.325-2.245h6.535c1.285.002 2.324 1.005 2.324 2.246v1.437c0 1.242-1.04 2.244-2.324 2.246h-.217l2.884 2.767h-2.78zM42.488 5.45h-7.67c-.244 0-.373.144-.373.313v1.158l8.043.007v1.825l-8.043.008v1.386c0 .192.192.306.367.306h7.676v1.868H34.78c-1.59 0-2.46-1.102-2.46-2.189V5.908c0-.938.768-2.255 2.311-2.255h7.857v1.798zm13.904 6.887H54.36V6.153l-2.896 5.141H49.71L46.671 6.13v6.21h-2.034V3.645h2.49l3.389 5.708 3.453-5.715h2.423v8.7zm4.262.022h-2.11V3.613h2.11v8.747zM72.97 5.451h-7.667c-.244 0-.374.144-.374.313v1.158l8.041.007v1.825l-8.041.008v1.386c0 .192.192.306.367.306h7.674v1.868h-7.705c-1.592 0-2.46-1.102-2.46-2.189V5.908c0-.938.767-2.255 2.312-2.255h7.853v1.798zm10.899 6.884l-2.866-2.767-3.557-.002a.365.365 0 0 0-.372.34v2.428h-1.953v-6.45c.003-1.24 1.039-2.243 2.325-2.245h6.535c1.284.002 2.322 1.005 2.325 2.246v1.437c-.003 1.242-1.043 2.244-2.326 2.246h-.216l2.882 2.767h-2.777zM98.623 5.45h-7.668c-.245 0-.376.144-.376.313v1.158l8.044.007v1.825l-8.044.008v1.386c0 .192.194.306.369.306h7.675v1.868h-7.707c-1.59 0-2.46-1.102-2.46-2.189V5.908c0-.938.769-2.255 2.312-2.255h7.855v1.798zm18.405-4.119c-4.05 0-7.356 3.29-7.356 7.32 0 4.032 3.306 7.322 7.356 7.322 4.049 0 7.356-3.29 7.356-7.322 0-4.03-3.307-7.32-7.356-7.32zm2.864 8.084l-4.136 2.38a1.228 1.228 0 0 1-.59.18h-.012c-.436-.003-.737-.352-.737-.95V6.262c0-.597.301-.946.737-.95h.013c.178.002.377.06.588.181l4.137 2.381c.736.424.736 1.117 0 1.54zm5.969 6.458v-14.4h5.26c2.694 0 4.23 1.944 4.23 4.21 0 2.267-1.556 4.21-4.23 4.21h-4.06v5.98h-1.2zm8.228-10.19c0-1.813-1.241-3.087-3.093-3.087h-3.935v6.175h3.935c1.852 0 3.093-1.274 3.093-3.088zm3.366 10.19v-14.4h1.2v13.278h6.797v1.122z"/>
    <path d="M156.54 15.873l-1.388-3.54h-7.429l-1.389 3.54h-1.389l5.745-14.4h1.494l5.745 14.4h-1.389zm-5.113-13.082l-3.304 8.42h6.629l-3.325-8.42zm9.721 13.082V9.72l-5.576-8.246h1.452l4.734 7.08 4.735-7.08h1.452l-5.577 8.246v6.153z"/>
  </g>
</svg>
